#!OML:ASF F:\VICON\USERDATA\INSTALL\rory3\rory3.ASF
:FULLY-SPECIFIED
:DEGREES
397
root 0.237751 17.7433 44.1242 -2.1769 -0.532506 2.3247
lowerback 10.5914 -0.224079 -3.28364
upperback 0.548113 -0.641862 0.89947
thorax -5.32556 -0.226157 2.89062
lowerneck -17.126 -2.8644 -2.97216
upperneck 21.2872 -3.69207 2.10856
head 9.66566 -1.71593 0.736368
rclavicle -1.2921e-014 -3.57812e-015
rhumerus -30.5976 -15.9516 -80.2374
rradius 28.2548
rwrist 3.38543
rhand -16.8939 22.4114
rfingers 7.12502
rthumb 9.33774 -7.36179
lclavicle -1.2921e-014 -3.57812e-015
lhumerus -21.5954 -7.03429 83.3957
lradius 25.9821
lwrist 6.01264
lhand -26.9545 23.9488
lfingers 7.12502
lthumb -0.376105 53.9282
rfemur -32.5811 -2.54598 20.5707
rtibia 43.5471
rfoot -8.2372 -12.1318
rtoes 1.87493
lfemur 4.02057 -2.25579 -28.6609
ltibia 22.7535
lfoot -16.7104 3.73547
ltoes -0.119363
398
root 0.198383 17.7416 44.2829 -1.73528 -0.957711 1.43544
lowerback 10.725 -0.0816853 -2.87358
upperback 0.247231 -0.386907 1.28779
thorax -5.7364 -0.0939639 3.03356
lowerneck -16.5125 -2.49957 -2.74099
upperneck 20.7966 -3.21777 1.96671
head 9.35963 -1.49939 0.719772
rclavicle 6.21202e-016 -2.3059e-014
rhumerus -31.0077 -16.2607 -79.9016
rradius 28.242
rwrist 3.77606
rhand -16.7722 22.2991
rfingers 7.12502
rthumb 9.45514 -7.46882
lclavicle 6.21202e-016 -2.3059e-014
lhumerus -21.4649 -7.54562 83.4516
lradius 26.4645
lwrist 6.30528
lhand -27.4522 22.3314
lfingers 7.12502
lthumb -0.856857 52.3094
rfemur -32.8435 -0.802777 21.5219
rtibia 40.1313
rfoot -7.71451 -13.5443
rtoes 5.14918
lfemur 4.53509 -1.75159 -27.4944
ltibia 21.792
lfoot -16.5116 3.73383
ltoes -1.83349
399
root 0.221615 17.7285 44.4351 -1.2338 -0.0487427 2.69193
lowerback 10.7382 -0.372414 -3.64308
upperback -0.0254641 -0.89556 0.904339
thorax -5.98964 -0.31818 3.14696
lowerneck -16.9106 -2.81042 -3.13579
upperneck 21.2659 -3.60022 2.20129
head 9.62076 -1.678 0.810667
rclavicle -1.22253e-014 -1.15295e-014
rhumerus -31.1565 -16.5241 -79.6042
rradius 28.1333
rwrist 4.12789
rhand -16.1348 21.7548
rfingers 7.12502
rthumb 10.0701 -7.98423
lclavicle -1.22253e-014 -1.15295e-014
lhumerus -21.1915 -7.72384 83.436
lradius 26.8584
lwrist 6.36901
lhand -27.3661 21.4754
lfingers 7.12502
lthumb -0.773696 51.4537
rfemur -33.1005 -1.51471 19.8908
rtibia 36.8611
rfoot -7.66237 -13.5502
rtoes 6.08216
lfemur 5.17629 -1.80748 -28.8246
ltibia 20.6617
lfoot -16.3322 2.88982
ltoes -2.02988
400
root 0.207711 17.7373 44.6497 -1.37946 0.116531 2.423
lowerback 10.1784 -0.486675 -3.45766
upperback 0.26233 -0.994873 1.01296
thorax -5.36369 -0.389423 3.15594
lowerneck -19.0154 -4.34768 -4.82471
upperneck 22.8325 -5.59958 3.62923
head 10.7415 -2.54018 1.27545
rclavicle 1.05853e-014 -7.95139e-015
rhumerus -30.9972 -16.9758 -79.4078
rradius 27.8829
rwrist 4.73759
rhand -15.4796 20.9665
rfingers 7.12502
rthumb 10.7022 -8.74094
lclavicle 1.05853e-014 -7.95139e-015
lhumerus -20.693 -7.70018 83.3295
lradius 27.2083
lwrist 6.56902
lhand -27.4211 20.773
lfingers 7.12502
lthumb -0.826801 50.7512
rfemur -32.196 -0.86612 19.9462
rtibia 33.3147
rfoot -8.0305 -13.9293
rtoes 5.24517
lfemur 6.47671 -1.5225 -28.4162
ltibia 19.9286
lfoot -16.483 2.51906
ltoes -2.27211
401
root 0.193109 17.7373 44.8543 -1.3188 0.249271 2.72983
lowerback 9.63184 -0.524124 -3.8724
upperback 0.574531 -1.06936 0.969707
thorax -4.71681 -0.437064 3.33938
lowerneck -17.2199 -2.74789 -3.06104
upperneck 21.0312 -3.52298 2.22325
head 9.59216 -1.63118 0.813072
rclavicle 5.86415e-015 -1.94809e-014
rhumerus -30.6292 -17.5861 -79.3003
rradius 27.6511
rwrist 5.08312
rhand -15.3318 20.7962
rfingers 7.12502
rthumb 10.8447 -8.90378
lclavicle 5.86415e-015 -1.94809e-014
lhumerus -19.9908 -8.07858 83.2571
lradius 27.6822
lwrist 7.41134
lhand -27.8896 18.8315
lfingers 7.12502
lthumb -1.27931 48.8074
rfemur -31.7391 0.103896 19.2556
rtibia 30.1954
rfoot -8.33767 -14.5457
rtoes 1.80582
lfemur 7.88889 -1.24354 -28.621
ltibia 18.3817
lfoot -16.2294 2.01835
ltoes -2.18376
402
root 0.163342 17.717 44.9956 -0.867419 0.140848 2.5635
lowerback 9.85821 -0.457283 -4.0146
upperback 0.543211 -0.998748 1.10428
thorax -4.87794 -0.393171 3.55694
lowerneck -18.1281 -3.04503 -3.22962
upperneck 21.1117 -3.90762 2.40581
head 9.80811 -1.79297 0.840995
rclavicle -1.14798e-014 1.35174e-014
rhumerus -30.3735 -18.1015 -79.2256
rradius 27.5676
rwrist 5.42182
rhand -15.85 21.1934
rfingers 7.12502
rthumb 10.3448 -8.53216
lclavicle -1.14798e-014 1.35174e-014
lhumerus -19.2882 -8.25905 83.1414
lradius 28.2459
lwrist 7.97814
lhand -27.6 20.7987
lfingers 7.12502
lthumb -0.999602 50.7761
rfemur -31.956 2.42608 18.7506
rtibia 26.99
rfoot -8.4549 -16.0151
rtoes -1.02489
lfemur 8.58639 -1.18835 -28.2638
ltibia 16.9189
lfoot -15.63 1.70049
ltoes -3.69747
403
root 0.169174 17.7041 45.2023 -0.914154 0.918367 3.13899
lowerback 9.78283 -0.796807 -4.39705
upperback 0.365143 -1.50133 0.938565
thorax -4.97212 -0.628827 3.66804
lowerneck -17.4659 -2.89275 -2.88677
upperneck 21.1518 -3.70667 1.96278
head 9.67658 -1.73002 0.665688
rclavicle 1.26725e-015 -1.98785e-015
rhumerus -30.6861 -18.5198 -78.8183
rradius 26.8502
rwrist 6.32178
rhand -15.6224 20.9589
rfingers 7.12502
rthumb 10.5644 -8.75563
lclavicle 1.26725e-015 -1.98785e-015
lhumerus -19.5784 -8.15963 83.0384
lradius 28.7426
lwrist 8.05187
lhand -27.7627 21.2068
lfingers 7.12502
lthumb -1.15675 51.1835
rfemur -31.2829 2.9667 17.4008
rtibia 24.1369
rfoot -10.4529 -16.4445
rtoes 2.90115
lfemur 10.2993 -1.37471 -28.8016
ltibia 15.5177
lfoot -15.4724 1.27384
ltoes -7.72426
404
root 0.15183 17.6909 45.3955 -0.723143 1.2571 3.53314
lowerback 9.71251 -0.930263 -4.94626
upperback 0.205992 -1.74156 0.913242
thorax -5.06263 -0.729009 3.98505
lowerneck -17.2503 -2.83974 -2.94412
upperneck 21.1182 -3.64421 2.05117
head 9.62607 -1.69762 0.717072
rclavicle -6.78353e-015 1.19271e-014
rhumerus -30.4469 -20.5338 -77.9128
rradius 25.1299
rwrist 8.6395
rhand -15.6086 21.4212
rfingers 7.12502
rthumb 10.5777 -8.29259
lclavicle -6.78353e-015 1.19271e-014
lhumerus -19.6542 -8.14248 82.9783
lradius 29.2449
lwrist 7.92051
lhand -27.2417 20.6137
lfingers 7.12502
lthumb -0.653536 50.5925
rfemur -30.898 4.60728 16.1399
rtibia 21.2802
rfoot -10.9879 -17.4033
rtoes 2.19723
lfemur 11.268 -1.41572 -29.0584
ltibia 14.6797
lfoot -15.2306 1.0276
ltoes -10.222
405
root 0.128564 17.6875 45.5865 -0.557576 1.50797 3.64622
lowerback 9.4734 -0.964519 -5.17485
upperback 0.201855 -1.79911 0.925731
thorax -4.91961 -0.756329 4.12735
lowerneck -17.3542 -3.04598 -3.29092
upperneck 21.1766 -3.92919 2.44337
head 9.69034 -1.81142 0.870736
rclavicle -7.60351e-015 1.94809e-014
rhumerus -30.8895 -20.4592 -77.785
rradius 25.5121
rwrist 8.2109
rhand -15.8079 21.0025
rfingers 7.12502
rthumb 10.3854 -8.72099
lclavicle -7.60351e-015 1.94809e-014
lhumerus -19.5732 -8.50386 83.0058
lradius 29.9088
lwrist 8.2123
lhand -29.959 21.8432
lfingers 7.12502
lthumb -3.27782 51.7978
rfemur -30.574 6.52273 15.1151
rtibia 18.8749
rfoot -11.6257 -18.5346
rtoes 1.118
lfemur 12.2635 -1.46087 -29.0028
ltibia 13.737
lfoot -14.7808 0.5522
ltoes -10.9875
406
root 0.106778 17.6995 45.778 -0.535059 1.70102 3.28814
lowerback 9.15627 -0.984868 -4.88313
upperback 0.195375 -1.77117 1.06988
thorax -4.75495 -0.752918 4.1002
lowerneck -18.356 -4.12794 -4.62716
upperneck 22.2675 -5.34267 3.57223
head 10.3895 -2.42473 1.27227
rclavicle 1.31695e-014 -1.59028e-014
rhumerus -31.3671 -20.7568 -77.4287
rradius 25.5518
rwrist 7.8293
rhand -15.8775 20.9289
rfingers 7.12502
rthumb 10.3183 -8.79793
lclavicle 1.31695e-014 -1.59028e-014
lhumerus -19.5408 -8.72893 83.1414
lradius 30.3867
lwrist 8.30603
lhand -30.7594 21.8544
lfingers 7.12502
lthumb -4.05085 51.7957
rfemur -30.157 8.41488 14.6402
rtibia 16.6939
rfoot -11.99 -19.6822
rtoes -1.01705
lfemur 13.045 -1.62061 -28.4766
ltibia 13.5462
lfoot -14.6127 0.0355176
ltoes -11.2447
407
root 0.0987554 17.6948 45.97 -0.660915 2.13353 3.12644
lowerback 9.33819 -1.19646 -4.73608
upperback 0.298508 -2.04065 1.13367
thorax -4.7228 -0.891778 4.12161
lowerneck -19.1748 -4.4201 -4.9265
upperneck 22.7245 -5.74493 3.95217
head 10.7534 -2.57358 1.38338
rclavicle 7.8023e-015 3.18055e-015
rhumerus -31.2385 -20.9333 -77.4706
rradius 24.8113
rwrist 6.46057
rhand -17.0177 23.153
rfingers 7.12502
rthumb 9.21825 -6.62546
lclavicle 7.8023e-015 3.18055e-015
lhumerus -19.1117 -8.48728 82.963
lradius 30.5487
lwrist 8.2439
lhand -30.0978 22.4159
lfingers 7.12502
lthumb -3.41188 52.3684
rfemur -29.3379 9.03 14.4066
rtibia 14.9444
rfoot -13.0763 -19.6791
rtoes -0.621686
lfemur 13.7595 -1.97858 -28.2113
ltibia 13.8717
lfoot -14.7135 -0.447124
ltoes -10.512
